<svg width="126" height="39" viewBox="0 0 126 39" fill="none" xmlns="http://www.w3.org/2000/svg">
<path d="M11.88 31.42C8.5 31.42 5.92 30.48 4.14 28.6C2.38 26.72 1.5 24.05 1.5 20.59C1.5 18.87 1.77 17.34 2.31 16C2.85 14.64 3.59 13.5 4.53 12.58C5.47 11.64 6.59 10.93 7.89 10.45C9.19 9.97 10.6 9.73 12.12 9.73C13 9.73 13.8 9.8 14.52 9.94C15.24 10.06 15.87 10.21 16.41 10.39C16.95 10.55 17.4 10.72 17.76 10.9C18.12 11.08 18.38 11.22 18.54 11.32L17.19 15.1C16.55 14.76 15.8 14.47 14.94 14.23C14.1 13.99 13.14 13.87 12.06 13.87C11.34 13.87 10.63 13.99 9.93 14.23C9.25 14.47 8.64 14.86 8.1 15.4C7.58 15.92 7.16 16.6 6.84 17.44C6.52 18.28 6.36 19.3 6.36 20.5C6.36 21.46 6.46 22.36 6.66 23.2C6.88 24.02 7.22 24.73 7.68 25.33C8.16 25.93 8.78 26.41 9.54 26.77C10.3 27.11 11.22 27.28 12.3 27.28C12.98 27.28 13.59 27.24 14.13 27.16C14.67 27.08 15.15 26.99 15.57 26.89C15.99 26.77 16.36 26.64 16.68 26.5C17 26.36 17.29 26.23 17.55 26.11L18.84 29.86C18.18 30.26 17.25 30.62 16.05 30.94C14.85 31.26 13.46 31.42 11.88 31.42ZM31.0631 19.18C30.6631 19.08 30.1931 18.98 29.6531 18.88C29.1131 18.76 28.5331 18.7 27.9131 18.7C27.6331 18.7 27.2931 18.73 26.8931 18.79C26.5131 18.83 26.2231 18.88 26.0231 18.94V31H21.5531V16.06C22.3531 15.78 23.2931 15.52 24.3731 15.28C25.4731 15.02 26.6931 14.89 28.0331 14.89C28.2731 14.89 28.5631 14.91 28.9031 14.95C29.2431 14.97 29.5831 15.01 29.9231 15.07C30.2631 15.11 30.6031 15.17 30.9431 15.25C31.2831 15.31 31.5731 15.39 31.8131 15.49L31.0631 19.18ZM48.6764 23.08C48.6764 24.32 48.4964 25.46 48.1364 26.5C47.7764 27.52 47.2564 28.4 46.5764 29.14C45.8964 29.86 45.0764 30.42 44.1164 30.82C43.1764 31.22 42.1164 31.42 40.9364 31.42C39.7764 31.42 38.7164 31.22 37.7564 30.82C36.8164 30.42 36.0064 29.86 35.3264 29.14C34.6464 28.4 34.1164 27.52 33.7364 26.5C33.3564 25.46 33.1664 24.32 33.1664 23.08C33.1664 21.84 33.3564 20.71 33.7364 19.69C34.1364 18.67 34.6764 17.8 35.3564 17.08C36.0564 16.36 36.8764 15.8 37.8164 15.4C38.7764 15 39.8164 14.8 40.9364 14.8C42.0764 14.8 43.1164 15 44.0564 15.4C45.0164 15.8 45.8364 16.36 46.5164 17.08C47.1964 17.8 47.7264 18.67 48.1064 19.69C48.4864 20.71 48.6764 21.84 48.6764 23.08ZM44.1164 23.08C44.1164 21.7 43.8364 20.62 43.2764 19.84C42.7364 19.04 41.9564 18.64 40.9364 18.64C39.9164 18.64 39.1264 19.04 38.5664 19.84C38.0064 20.62 37.7264 21.7 37.7264 23.08C37.7264 24.46 38.0064 25.56 38.5664 26.38C39.1264 27.18 39.9164 27.58 40.9364 27.58C41.9564 27.58 42.7364 27.18 43.2764 26.38C43.8364 25.56 44.1164 24.46 44.1164 23.08ZM56.6691 27.79C57.4891 27.79 58.0691 27.71 58.4091 27.55C58.7491 27.39 58.9191 27.08 58.9191 26.62C58.9191 26.26 58.6991 25.95 58.2591 25.69C57.8191 25.41 57.1491 25.1 56.2491 24.76C55.5491 24.5 54.9091 24.23 54.3291 23.95C53.7691 23.67 53.2891 23.34 52.8891 22.96C52.4891 22.56 52.1791 22.09 51.9591 21.55C51.7391 21.01 51.6291 20.36 51.6291 19.6C51.6291 18.12 52.1791 16.95 53.2791 16.09C54.3791 15.23 55.8891 14.8 57.8091 14.8C58.7691 14.8 59.6891 14.89 60.5691 15.07C61.4491 15.23 62.1491 15.41 62.6691 15.61L61.8891 19.09C61.3691 18.91 60.7991 18.75 60.1791 18.61C59.5791 18.47 58.8991 18.4 58.1391 18.4C56.7391 18.4 56.0391 18.79 56.0391 19.57C56.0391 19.75 56.0691 19.91 56.1291 20.05C56.1891 20.19 56.3091 20.33 56.4891 20.47C56.6691 20.59 56.9091 20.73 57.2091 20.89C57.5291 21.03 57.9291 21.19 58.4091 21.37C59.3891 21.73 60.1991 22.09 60.8391 22.45C61.4791 22.79 61.9791 23.17 62.3391 23.59C62.7191 23.99 62.9791 24.44 63.1191 24.94C63.2791 25.44 63.3591 26.02 63.3591 26.68C63.3591 28.24 62.7691 29.42 61.5891 30.22C60.4291 31.02 58.7791 31.42 56.6391 31.42C55.2391 31.42 54.0691 31.3 53.1291 31.06C52.2091 30.82 51.5691 30.62 51.2091 30.46L51.9591 26.83C52.7191 27.13 53.4991 27.37 54.2991 27.55C55.0991 27.71 55.8891 27.79 56.6691 27.79ZM71.2296 27.79C72.0496 27.79 72.6296 27.71 72.9696 27.55C73.3096 27.39 73.4796 27.08 73.4796 26.62C73.4796 26.26 73.2596 25.95 72.8196 25.69C72.3796 25.41 71.7096 25.1 70.8096 24.76C70.1096 24.5 69.4696 24.23 68.8896 23.95C68.3296 23.67 67.8496 23.34 67.4496 22.96C67.0496 22.56 66.7396 22.09 66.5196 21.55C66.2996 21.01 66.1896 20.36 66.1896 19.6C66.1896 18.12 66.7396 16.95 67.8396 16.09C68.9396 15.23 70.4496 14.8 72.3696 14.8C73.3296 14.8 74.2496 14.89 75.1296 15.07C76.0096 15.23 76.7096 15.41 77.2296 15.61L76.4496 19.09C75.9296 18.91 75.3596 18.75 74.7396 18.61C74.1396 18.47 73.4596 18.4 72.6996 18.4C71.2996 18.4 70.5996 18.79 70.5996 19.57C70.5996 19.75 70.6296 19.91 70.6896 20.05C70.7496 20.19 70.8696 20.33 71.0496 20.47C71.2296 20.59 71.4696 20.73 71.7696 20.89C72.0896 21.03 72.4896 21.19 72.9696 21.37C73.9496 21.73 74.7596 22.09 75.3996 22.45C76.0396 22.79 76.5396 23.17 76.8996 23.59C77.2796 23.99 77.5396 24.44 77.6796 24.94C77.8396 25.44 77.9196 26.02 77.9196 26.68C77.9196 28.24 77.3296 29.42 76.1496 30.22C74.9896 31.02 73.3396 31.42 71.1996 31.42C69.7996 31.42 68.6296 31.3 67.6896 31.06C66.7696 30.82 66.1296 30.62 65.7696 30.46L66.5196 26.83C67.2796 27.13 68.0596 27.37 68.8596 27.55C69.6596 27.71 70.4496 27.79 71.2296 27.79ZM79.9102 20.02H88.6102V24.07H79.9102V20.02Z" fill="#263238"/>
<path d="M103.695 31C103.115 29.84 102.475 28.67 101.775 27.49C101.095 26.29 100.305 25.07 99.4055 23.83C99.1255 24.19 98.7655 24.69 98.3255 25.33C97.9055 25.97 97.4755 26.65 97.0355 27.37C96.6155 28.09 96.2155 28.78 95.8355 29.44C95.4555 30.1 95.1755 30.62 94.9955 31H89.6555C90.5355 29.38 91.5555 27.68 92.7155 25.9C93.8955 24.12 95.2055 22.23 96.6455 20.23L89.9555 10.21H95.6255L99.6755 16.69L103.635 10.21H108.975L102.375 20.29C104.055 22.47 105.465 24.49 106.605 26.35C107.745 28.19 108.645 29.74 109.305 31H103.695ZM124.977 15.22C124.077 18.26 123.137 21.11 122.157 23.77C121.177 26.43 120.107 29.01 118.947 31.51C118.527 32.41 118.107 33.17 117.687 33.79C117.267 34.43 116.807 34.95 116.307 35.35C115.807 35.77 115.237 36.07 114.597 36.25C113.977 36.45 113.247 36.55 112.407 36.55C111.707 36.55 111.057 36.48 110.457 36.34C109.877 36.22 109.397 36.08 109.017 35.92L109.797 32.35C110.257 32.51 110.667 32.62 111.027 32.68C111.387 32.74 111.767 32.77 112.167 32.77C112.967 32.77 113.577 32.55 113.997 32.11C114.437 31.69 114.807 31.1 115.107 30.34C114.087 28.34 113.067 26.1 112.047 23.62C111.027 21.12 110.067 18.32 109.167 15.22H113.907C114.107 16 114.337 16.85 114.597 17.77C114.877 18.67 115.167 19.59 115.467 20.53C115.767 21.45 116.067 22.35 116.367 23.23C116.687 24.11 116.987 24.91 117.267 25.63C117.527 24.91 117.797 24.11 118.077 23.23C118.357 22.35 118.627 21.45 118.887 20.53C119.167 19.59 119.427 18.67 119.667 17.77C119.927 16.85 120.157 16 120.357 15.22H124.977Z" fill="#7782FF"/>
</svg>
