<svg width="159" height="35" viewBox="0 0 159 35" fill="none" xmlns="http://www.w3.org/2000/svg">
<path d="M49.041 17.172C50.193 17.442 51.102 18 51.768 18.846C52.452 19.692 52.794 20.673 52.794 21.789C52.794 23.427 52.245 24.705 51.147 25.623C50.067 26.541 48.51 27 46.476 27H37.593V7.911H46.26C48.204 7.911 49.707 8.334 50.769 9.18C51.831 10.026 52.362 11.232 52.362 12.798C52.362 13.95 52.056 14.913 51.444 15.687C50.832 16.443 50.031 16.938 49.041 17.172ZM42.21 15.714H45.234C46.836 15.714 47.637 15.03 47.637 13.662C47.637 12.294 46.818 11.61 45.18 11.61H42.21V15.714ZM45.504 23.247C47.214 23.247 48.069 22.545 48.069 21.141C48.069 20.457 47.844 19.926 47.394 19.548C46.944 19.152 46.305 18.954 45.477 18.954H42.21V23.247H45.504ZM54.8006 7.695C54.8006 6.993 55.0526 6.417 55.5566 5.967C56.0606 5.499 56.7266 5.265 57.5546 5.265C58.3826 5.265 59.0486 5.499 59.5526 5.967C60.0566 6.417 60.3086 6.993 60.3086 7.695C60.3086 8.379 60.0566 8.955 59.5526 9.423C59.0486 9.873 58.3826 10.098 57.5546 10.098C56.7266 10.098 56.0606 9.873 55.5566 9.423C55.0526 8.955 54.8006 8.379 54.8006 7.695ZM59.8496 11.934V27H55.2326V11.934H59.8496ZM71.5693 23.031V27H69.4903C67.7263 27 66.3493 26.568 65.3593 25.704C64.3873 24.822 63.9013 23.373 63.9013 21.357V15.822H61.8763V11.934H63.9013V8.235H68.5183V11.934H71.5423V15.822H68.5183V21.438C68.5183 22.032 68.6353 22.446 68.8693 22.68C69.1213 22.914 69.5353 23.031 70.1113 23.031H71.5693ZM82.6963 23.031V27H80.6173C78.8533 27 77.4763 26.568 76.4863 25.704C75.5143 24.822 75.0283 23.373 75.0283 21.357V15.822H73.0033V11.934H75.0283V8.235H79.6453V11.934H82.6693V15.822H79.6453V21.438C79.6453 22.032 79.7623 22.446 79.9963 22.68C80.2483 22.914 80.6623 23.031 81.2383 23.031H82.6963ZM92.3382 11.745C93.8322 11.745 95.1642 12.06 96.3342 12.69C97.5222 13.302 98.4492 14.193 99.1152 15.363C99.7992 16.533 100.141 17.901 100.141 19.467C100.141 21.033 99.7992 22.401 99.1152 23.571C98.4492 24.741 97.5222 25.641 96.3342 26.271C95.1642 26.883 93.8322 27.189 92.3382 27.189C90.8442 27.189 89.5032 26.883 88.3152 26.271C87.1272 25.641 86.1912 24.741 85.5072 23.571C84.8412 22.401 84.5082 21.033 84.5082 19.467C84.5082 17.901 84.8412 16.533 85.5072 15.363C86.1912 14.193 87.1272 13.302 88.3152 12.69C89.5032 12.06 90.8442 11.745 92.3382 11.745ZM92.3382 15.741C91.4562 15.741 90.7092 16.065 90.0972 16.713C89.5032 17.343 89.2062 18.261 89.2062 19.467C89.2062 20.673 89.5032 21.591 90.0972 22.221C90.7092 22.851 91.4562 23.166 92.3382 23.166C93.2202 23.166 93.9582 22.851 94.5522 22.221C95.1462 21.591 95.4432 20.673 95.4432 19.467C95.4432 18.261 95.1462 17.343 94.5522 16.713C93.9582 16.065 93.2202 15.741 92.3382 15.741ZM107.152 14.769C107.728 13.851 108.466 13.122 109.366 12.582C110.284 12.042 111.274 11.772 112.336 11.772V16.713H111.013C109.789 16.713 108.835 16.974 108.151 17.496C107.485 18.018 107.152 18.9 107.152 20.142V27H102.535V11.934H107.152V14.769ZM128.579 19.062C128.579 19.44 128.534 19.854 128.444 20.304H117.995C118.049 21.438 118.337 22.257 118.859 22.761C119.381 23.247 120.047 23.49 120.857 23.49C121.541 23.49 122.108 23.319 122.558 22.977C123.008 22.635 123.305 22.194 123.449 21.654H128.336C128.138 22.716 127.706 23.67 127.04 24.516C126.374 25.344 125.528 26.001 124.502 26.487C123.476 26.955 122.333 27.189 121.073 27.189C119.597 27.189 118.283 26.883 117.131 26.271C115.997 25.641 115.106 24.741 114.458 23.571C113.81 22.401 113.486 21.033 113.486 19.467C113.486 17.883 113.801 16.515 114.431 15.363C115.079 14.193 115.979 13.302 117.131 12.69C118.283 12.06 119.597 11.745 121.073 11.745C122.567 11.745 123.881 12.051 125.015 12.663C126.149 13.275 127.022 14.139 127.634 15.255C128.264 16.353 128.579 17.622 128.579 19.062ZM123.908 18.36C123.926 17.37 123.656 16.632 123.098 16.146C122.558 15.642 121.883 15.39 121.073 15.39C120.227 15.39 119.525 15.642 118.967 16.146C118.409 16.65 118.094 17.388 118.022 18.36H123.908ZM140.544 11.772C142.272 11.772 143.64 12.348 144.648 13.5C145.674 14.652 146.187 16.236 146.187 18.252V27H141.57V18.792C141.57 17.784 141.3 17.001 140.76 16.443C140.238 15.867 139.536 15.579 138.654 15.579C137.718 15.579 136.971 15.876 136.413 16.47C135.873 17.064 135.603 17.91 135.603 19.008V27H130.986V11.934H135.603V14.688C136.035 13.788 136.674 13.077 137.52 12.555C138.384 12.033 139.392 11.772 140.544 11.772ZM157.764 23.031V27H155.685C153.921 27 152.544 26.568 151.554 25.704C150.582 24.822 150.096 23.373 150.096 21.357V15.822H148.071V11.934H150.096V8.235H154.713V11.934H157.737V15.822H154.713V21.438C154.713 22.032 154.83 22.446 155.064 22.68C155.316 22.914 155.73 23.031 156.306 23.031H157.764Z" fill="#263238"/>
<rect y="3" width="9" height="9" fill="#3EBA59"/>
<rect y="12" width="9" height="10" fill="#83EBFF"/>
<rect y="22" width="9" height="9" fill="#20C1E1"/>
<rect x="9" y="3" width="10" height="9" fill="#83EBFF"/>
<rect x="9" y="22" width="10" height="9" fill="#83EBFF"/>
<rect x="19" y="3" width="9" height="9" fill="#20C1E1"/>
<rect x="19" y="12" width="9" height="10" fill="#83EBFF"/>
<rect x="19" y="22" width="9" height="9" fill="#3EBA59"/>
<rect x="5" y="8" width="18" height="18" fill="white"/>
</svg>
