<svg width="129" height="34" viewBox="0 0 129 34" fill="none" xmlns="http://www.w3.org/2000/svg">
<path d="M27.3715 33.3112H6.2762C2.80953 33.3112 0 30.5298 0 27.0978V6.21345C0 2.78144 2.80953 0 6.2762 0H27.3715C30.8382 0 33.6477 2.78144 33.6477 6.21345V27.0978C33.6477 30.5298 30.8382 33.3112 27.3715 33.3112Z" fill="#7782FF"/>
<path d="M22.8864 16.9621C23.4864 17.707 23.7912 18.5744 23.7912 19.555C23.7912 20.9975 23.3055 22.129 22.334 22.9304C21.3626 23.7318 19.9721 24.1467 18.1626 24.1467H10.2578V7.31665H17.9721C19.7054 7.31665 21.0388 7.6938 21.9816 8.43866C22.9245 9.18351 23.4007 10.2489 23.4007 11.6255C23.4007 12.6438 23.1245 13.483 22.5817 14.1618C22.0388 14.8407 21.3245 15.2744 20.4388 15.4818C21.4769 15.727 22.2864 16.2172 22.8864 16.9621ZM14.3626 14.1995H17.0578C18.4864 14.1995 19.2007 13.5961 19.2007 12.3892C19.2007 11.1824 18.4674 10.5789 17.0102 10.5789H14.3626V14.1995ZM19.5816 18.9893C19.5816 18.3858 19.3816 17.9144 18.9816 17.575C18.5816 17.2355 18.0102 17.0658 17.2769 17.0658H14.3721V20.8467H17.3054C18.8197 20.8373 19.5816 20.2244 19.5816 18.9893Z" fill="white"/>
<path d="M53.1438 24.1467L49.4675 17.7918H48.5342V24.1467H44.4199V7.31665H51.439C52.7818 7.31665 53.9247 7.54294 54.8485 8.00494C55.7819 8.46694 56.4771 9.09865 56.9438 9.90008C57.4104 10.7015 57.639 11.6161 57.639 12.6532C57.639 13.879 57.2961 14.9161 56.6199 15.7741C55.9342 16.6321 54.9533 17.2167 53.6485 17.5372L57.6866 24.1561H53.1438V24.1467ZM48.5342 15.0104H51.0771C51.8961 15.0104 52.4961 14.8312 52.8771 14.473C53.258 14.1147 53.458 13.5867 53.458 12.889C53.458 12.2195 53.258 11.7009 52.8676 11.3144C52.4771 10.9372 51.8771 10.7392 51.0771 10.7392H48.5342V15.0104Z" fill="#263238"/>
<path d="M76.2485 21.0825H69.8771L68.8199 24.1562H64.4961L70.7247 7.44873H75.458L81.6866 24.1562H77.3152L76.2485 21.0825ZM75.1914 17.9805L73.0771 11.7953L70.9342 17.9805H75.1914Z" fill="#263238"/>
<path d="M104.382 24.1467H100.268L93.3916 13.8129V24.1467H89.2773V7.31665H93.3916L100.268 17.7447V7.31665H104.382V24.1467Z" fill="#263238"/>
<path d="M127.45 20.0925C126.735 21.3653 125.707 22.3648 124.373 23.0813C123.031 23.7979 121.459 24.1562 119.65 24.1562H113.23V7.32617H119.65C121.478 7.32617 123.059 7.67503 124.383 8.37275C125.716 9.07046 126.735 10.051 127.45 11.3239C128.164 12.5968 128.516 14.0488 128.516 15.7082C128.516 17.3488 128.154 18.8102 127.45 20.0925ZM123.021 19.2439C123.907 18.4048 124.354 17.2168 124.354 15.6988C124.354 14.1713 123.907 12.9928 123.021 12.1536C122.135 11.3145 120.888 10.8902 119.278 10.8902H117.335V20.5073H119.278C120.888 20.5073 122.135 20.0925 123.021 19.2439Z" fill="#263238"/>
</svg>
