<svg width="108" height="39" viewBox="0 0 108 39" fill="none" xmlns="http://www.w3.org/2000/svg">
<path d="M9.33 31.27C8.19 31.27 7.05 31.23 5.91 31.15C4.79 31.09 3.62 30.93 2.4 30.67V10.51C3.36 10.33 4.41 10.2 5.55 10.12C6.69 10.02 7.75 9.97 8.73 9.97C10.05 9.97 11.26 10.07 12.36 10.27C13.48 10.45 14.44 10.77 15.24 11.23C16.04 11.69 16.66 12.3 17.1 13.06C17.56 13.8 17.79 14.72 17.79 15.82C17.79 17.48 16.99 18.79 15.39 19.75C16.71 20.25 17.61 20.93 18.09 21.79C18.57 22.65 18.81 23.62 18.81 24.7C18.81 26.88 18.01 28.52 16.41 29.62C14.83 30.72 12.47 31.27 9.33 31.27ZM6.96 21.94V27.31C7.3 27.35 7.67 27.38 8.07 27.4C8.47 27.42 8.91 27.43 9.39 27.43C10.79 27.43 11.92 27.23 12.78 26.83C13.64 26.43 14.07 25.69 14.07 24.61C14.07 23.65 13.71 22.97 12.99 22.57C12.27 22.15 11.24 21.94 9.9 21.94H6.96ZM6.96 18.37H9.24C10.68 18.37 11.71 18.19 12.33 17.83C12.95 17.45 13.26 16.85 13.26 16.03C13.26 15.19 12.94 14.6 12.3 14.26C11.66 13.92 10.72 13.75 9.48 13.75C9.08 13.75 8.65 13.76 8.19 13.78C7.73 13.78 7.32 13.8 6.96 13.84V18.37ZM26.7263 31H22.2563V15.22H26.7263V31ZM27.1463 10.66C27.1463 11.48 26.8763 12.13 26.3363 12.61C25.8163 13.07 25.1963 13.3 24.4763 13.3C23.7563 13.3 23.1263 13.07 22.5863 12.61C22.0663 12.13 21.8063 11.48 21.8063 10.66C21.8063 9.84 22.0663 9.2 22.5863 8.74C23.1263 8.26 23.7563 8.02 24.4763 8.02C25.1963 8.02 25.8163 8.26 26.3363 8.74C26.8763 9.2 27.1463 9.84 27.1463 10.66ZM30.7781 11.29L35.2481 10.57V15.22H40.6181V18.94H35.2481V24.49C35.2481 25.43 35.4081 26.18 35.7281 26.74C36.0681 27.3 36.7381 27.58 37.7381 27.58C38.2181 27.58 38.7081 27.54 39.2081 27.46C39.7281 27.36 40.1981 27.23 40.6181 27.07L41.2481 30.55C40.7081 30.77 40.1081 30.96 39.4481 31.12C38.7881 31.28 37.9781 31.36 37.0181 31.36C35.7981 31.36 34.7881 31.2 33.9881 30.88C33.1881 30.54 32.5481 30.08 32.0681 29.5C31.5881 28.9 31.2481 28.18 31.0481 27.34C30.8681 26.5 30.7781 25.57 30.7781 24.55V11.29Z" fill="#263238"/>
<path d="M82.13 27.88C82.57 27.88 82.99 27.87 83.39 27.85C83.79 27.83 84.11 27.8 84.35 27.76V24.37C84.17 24.33 83.9 24.29 83.54 24.25C83.18 24.21 82.85 24.19 82.55 24.19C82.13 24.19 81.73 24.22 81.35 24.28C80.99 24.32 80.67 24.41 80.39 24.55C80.11 24.69 79.89 24.88 79.73 25.12C79.57 25.36 79.49 25.66 79.49 26.02C79.49 26.72 79.72 27.21 80.18 27.49C80.66 27.75 81.31 27.88 82.13 27.88ZM81.77 14.8C83.09 14.8 84.19 14.95 85.07 15.25C85.95 15.55 86.65 15.98 87.17 16.54C87.71 17.1 88.09 17.78 88.31 18.58C88.53 19.38 88.64 20.27 88.64 21.25V30.55C88 30.69 87.11 30.85 85.97 31.03C84.83 31.23 83.45 31.33 81.83 31.33C80.81 31.33 79.88 31.24 79.04 31.06C78.22 30.88 77.51 30.59 76.91 30.19C76.31 29.77 75.85 29.23 75.53 28.57C75.21 27.91 75.05 27.1 75.05 26.14C75.05 25.22 75.23 24.44 75.59 23.8C75.97 23.16 76.47 22.65 77.09 22.27C77.71 21.89 78.42 21.62 79.22 21.46C80.02 21.28 80.85 21.19 81.71 21.19C82.29 21.19 82.8 21.22 83.24 21.28C83.7 21.32 84.07 21.38 84.35 21.46V21.04C84.35 20.28 84.12 19.67 83.66 19.21C83.2 18.75 82.4 18.52 81.26 18.52C80.5 18.52 79.75 18.58 79.01 18.7C78.27 18.8 77.63 18.95 77.09 19.15L76.52 15.55C76.78 15.47 77.1 15.39 77.48 15.31C77.88 15.21 78.31 15.13 78.77 15.07C79.23 14.99 79.71 14.93 80.21 14.89C80.73 14.83 81.25 14.8 81.77 14.8ZM98.952 20.02L102.072 15.22H106.692L101.292 22.81C102.492 24.31 103.582 25.77 104.562 27.19C105.542 28.61 106.322 29.88 106.902 31H102.102C101.942 30.7 101.742 30.33 101.502 29.89C101.262 29.43 100.992 28.96 100.692 28.48C100.392 27.98 100.072 27.49 99.732 27.01C99.412 26.51 99.092 26.06 98.772 25.66C98.472 26.04 98.162 26.46 97.842 26.92C97.542 27.38 97.252 27.85 96.972 28.33C96.692 28.79 96.412 29.25 96.132 29.71C95.872 30.17 95.642 30.6 95.442 31H90.882C91.122 30.5 91.452 29.91 91.872 29.23C92.292 28.55 92.742 27.85 93.222 27.13C93.722 26.39 94.242 25.66 94.782 24.94C95.322 24.2 95.852 23.51 96.372 22.87C95.472 21.61 94.572 20.34 93.672 19.06C92.772 17.76 91.882 16.48 91.002 15.22H95.832L98.952 20.02Z" fill="#263238"/>
<path d="M52.5 11L60.7272 29.75H44.2728L52.5 11Z" fill="#FEBA66"/>
<path d="M62.5 11L70.7272 29.75H54.2728L62.5 11Z" fill="#EDA54C"/>
</svg>
