<svg width="114" height="35" viewBox="0 0 114 35" fill="none" xmlns="http://www.w3.org/2000/svg">
<path d="M32.7646 16.5283C32.8262 15.9307 32.8569 15.2451 32.8569 14.4717C32.8569 13.2412 32.791 11.7119 32.6592 9.88379C34.3027 9.93652 37.0845 9.96289 41.0044 9.96289C44.9243 9.96289 47.6973 9.93652 49.3232 9.88379C49.1914 11.7119 49.1255 13.2412 49.1255 14.4717C49.1255 15.2451 49.1562 15.9307 49.2178 16.5283H48.5981C48.2993 15.0254 47.9346 13.8389 47.5039 12.9688C47.0732 12.0898 46.5547 11.4614 45.9482 11.0835C45.3506 10.6968 44.6211 10.5034 43.7598 10.5034H43.1401V25.9282C43.1401 26.6753 43.2148 27.2202 43.3643 27.563C43.5225 27.9058 43.7949 28.1387 44.1816 28.2617C44.5771 28.3848 45.1924 28.4507 46.0273 28.4595V29C43.7598 28.9473 42.0503 28.9209 40.8989 28.9209C39.7651 28.9209 38.1172 28.9473 35.9551 29V28.4595C36.7988 28.4507 37.4141 28.3848 37.8008 28.2617C38.1963 28.1387 38.4688 27.9058 38.6182 27.563C38.7676 27.2202 38.8423 26.6753 38.8423 25.9282V10.5034H38.249C37.3789 10.5034 36.6406 10.6924 36.0342 11.0703C35.4365 11.4482 34.9224 12.0767 34.4917 12.9556C34.061 13.8257 33.6919 15.0166 33.3843 16.5283H32.7646ZM57.4312 17.6094C57.4312 16.8623 57.251 16.2734 56.8906 15.8428C56.5391 15.4121 55.9854 15.1968 55.2295 15.1968C54.8779 15.1968 54.5264 15.2539 54.1748 15.3682C53.8232 15.4736 53.5332 15.6362 53.3047 15.856C53.8057 16.0229 54.1968 16.2866 54.478 16.647C54.7593 16.9985 54.8999 17.4424 54.8999 17.9785C54.8999 18.3477 54.8076 18.6816 54.623 18.9805C54.4473 19.2705 54.1924 19.5034 53.8584 19.6792C53.5244 19.8462 53.1421 19.9297 52.7114 19.9297C52.1313 19.9297 51.6655 19.7319 51.314 19.3364C50.9712 18.9409 50.7998 18.4443 50.7998 17.8467C50.7998 16.915 51.3008 16.1592 52.3027 15.5791C53.4014 14.9727 54.7725 14.6694 56.416 14.6694C58.2617 14.6694 59.5757 15.0737 60.3579 15.8823C60.7358 16.2603 60.9907 16.7305 61.1226 17.293C61.2544 17.8555 61.3203 18.6421 61.3203 19.6528V26.9961C61.3203 27.4355 61.3599 27.7476 61.439 27.9321C61.5269 28.1079 61.6763 28.1958 61.8872 28.1958C62.1772 28.1958 62.5112 28.042 62.8892 27.7344L63.166 28.1958C62.7529 28.5386 62.3047 28.7891 61.8213 28.9473C61.3379 29.1055 60.7578 29.1846 60.0811 29.1846C59.167 29.1846 58.5078 28.9824 58.1035 28.5781C57.6992 28.1738 57.4971 27.6465 57.4971 26.9961C57.0576 27.7256 56.4819 28.2749 55.77 28.644C55.0581 29.0044 54.2979 29.1846 53.4893 29.1846C52.4609 29.1846 51.6348 28.9165 51.0107 28.3804C50.3955 27.8354 50.0879 27.0796 50.0879 26.1128C50.0879 25.1724 50.3955 24.3945 51.0107 23.7793C51.626 23.1641 52.5796 22.6191 53.8716 22.1445C54.0122 22.0918 54.4692 21.9204 55.2427 21.6304C56.0161 21.3315 56.5742 21.0283 56.917 20.7207C57.2598 20.4131 57.4312 20.0747 57.4312 19.7056V17.6094ZM57.4312 20.813C57.3169 21.0063 57.1279 21.2085 56.8643 21.4194C56.6094 21.6216 56.2402 21.8721 55.7568 22.1709C55.1855 22.5664 54.7373 23.0146 54.4121 23.5156C54.0869 24.0078 53.9243 24.623 53.9243 25.3613C53.9243 26.0645 54.0781 26.5918 54.3857 26.9434C54.6934 27.2861 55.0977 27.4575 55.5986 27.4575C56.3105 27.4575 56.9214 27.0884 57.4312 26.3501V20.813ZM69.5732 17.2534C69.916 16.4888 70.4082 15.8691 71.0498 15.3945C71.7002 14.9111 72.4341 14.6694 73.2515 14.6694C73.7964 14.6694 74.2534 14.7881 74.6226 15.0254C74.9917 15.2627 75.2642 15.5703 75.4399 15.9482C75.6157 16.3174 75.7036 16.7173 75.7036 17.1479C75.7036 17.8159 75.5103 18.3608 75.1235 18.7827C74.7368 19.2046 74.2271 19.4155 73.5942 19.4155C72.979 19.4155 72.4912 19.2617 72.1309 18.9541C71.7793 18.6377 71.6035 18.2158 71.6035 17.6885C71.6035 16.8271 71.999 16.124 72.79 15.5791C72.6758 15.5527 72.5659 15.5396 72.4604 15.5396C72.3374 15.5396 72.1968 15.5615 72.0386 15.6055C71.5815 15.6758 71.1641 15.8955 70.7861 16.2646C70.4082 16.625 70.1094 17.0601 69.8896 17.5698C69.6787 18.0796 69.5732 18.5762 69.5732 19.0596V26.2183C69.5732 27.0532 69.7754 27.6333 70.1797 27.9585C70.584 28.2749 71.23 28.4331 72.1177 28.4331V29C69.8677 28.9297 68.4351 28.8945 67.8198 28.8945C67.2485 28.8945 65.9609 28.9297 63.957 29V28.4331C64.3877 28.4331 64.7261 28.376 64.9722 28.2617C65.2271 28.1475 65.4072 27.9497 65.5127 27.6685C65.627 27.3872 65.6841 26.9961 65.6841 26.4951V17.9785C65.6841 17.1436 65.5566 16.5415 65.3018 16.1724C65.0469 15.7944 64.5986 15.6055 63.957 15.6055V15.0386C64.5283 15.0913 65.0864 15.1177 65.6313 15.1177C67.2222 15.1177 68.5361 14.9946 69.5732 14.7485V17.2534ZM86.6064 25.5459C87.6875 25.5459 88.562 25.7744 89.23 26.2314C89.9067 26.6797 90.2451 27.4136 90.2451 28.4331C90.2451 29.356 89.9551 30.248 89.375 31.1094C88.7949 31.9795 87.916 32.6914 86.7383 33.2451C85.5605 33.7988 84.1235 34.0757 82.4272 34.0757C81.1089 34.0757 80.0015 33.9702 79.105 33.7593C78.2173 33.5571 77.5537 33.2803 77.1143 32.9287C76.6748 32.5771 76.4551 32.1772 76.4551 31.729C76.4551 31.2456 76.6353 30.8853 76.9956 30.6479C77.3647 30.4106 77.9624 30.1602 78.7886 29.8965C79.6147 29.6328 80.1992 29.3779 80.542 29.1318H79.9092C79.1621 29.1318 78.4722 28.9517 77.8394 28.5913C77.2065 28.231 76.8901 27.5762 76.8901 26.627C76.8901 26.1084 76.9956 25.6426 77.2065 25.2295C77.4263 24.8076 77.7822 24.4077 78.2744 24.0298C78.7754 23.6431 79.4478 23.2476 80.2915 22.8433C79.3687 22.5269 78.6479 22.0479 78.1294 21.4062C77.6108 20.7559 77.3516 19.9385 77.3516 18.9541C77.3516 17.5303 77.8789 16.4624 78.9336 15.7505C79.9971 15.0298 81.4033 14.6694 83.1523 14.6694C83.873 14.6694 84.541 14.731 85.1562 14.854C85.1299 14.397 85.165 13.9443 85.2617 13.4961C85.3496 12.749 85.6045 12.1514 86.0264 11.7031C86.4482 11.2461 87.0459 11.0176 87.8193 11.0176C88.3906 11.0176 88.8608 11.1714 89.23 11.479C89.6079 11.7778 89.7969 12.1733 89.7969 12.6655C89.7969 13.1226 89.6167 13.5005 89.2563 13.7993C88.9048 14.0894 88.4609 14.2344 87.9248 14.2344C87.3799 14.2344 86.9536 14.1069 86.646 13.8521C86.3384 13.5972 86.1011 13.2192 85.9341 12.7183C85.7407 13.0435 85.6045 13.5049 85.5254 14.1025C85.5166 14.1904 85.5122 14.3223 85.5122 14.498C85.5122 14.6914 85.5166 14.8364 85.5254 14.9331C86.5977 15.2056 87.437 15.6802 88.0435 16.3569C88.6499 17.0249 88.9531 17.8906 88.9531 18.9541C88.9531 19.9121 88.7026 20.7119 88.2017 21.3535C87.7095 21.9951 87.0283 22.4741 86.1582 22.7905C85.2881 23.0981 84.2861 23.252 83.1523 23.252C82.2998 23.252 81.522 23.1641 80.8188 22.9883C80.3003 23.2871 79.9136 23.5596 79.6587 23.8057C79.4126 24.0518 79.2896 24.333 79.2896 24.6494C79.2896 25.2471 79.6499 25.5459 80.3706 25.5459H86.6064ZM83.1523 15.144C82.5635 15.144 82.1152 15.4341 81.8076 16.0142C81.5 16.5942 81.3462 17.5742 81.3462 18.9541C81.3462 20.334 81.5 21.314 81.8076 21.894C82.1152 22.4741 82.5635 22.7642 83.1523 22.7642C83.75 22.7642 84.1982 22.4741 84.4971 21.894C84.8047 21.314 84.9585 20.334 84.9585 18.9541C84.9585 17.5742 84.8047 16.5942 84.4971 16.0142C84.1982 15.4341 83.75 15.144 83.1523 15.144ZM81.0562 29.1318C80.7573 29.4131 80.5244 29.7603 80.3574 30.1733C80.1992 30.5864 80.1201 30.96 80.1201 31.2939C80.1201 32.041 80.4014 32.6123 80.9639 33.0078C81.5352 33.4121 82.2646 33.6143 83.1523 33.6143C83.8818 33.6143 84.5586 33.478 85.1826 33.2056C85.8154 32.9419 86.3164 32.5552 86.6855 32.0454C87.0635 31.5356 87.2524 30.9424 87.2524 30.2656C87.2524 29.8789 87.1382 29.5933 86.9097 29.4087C86.6812 29.2241 86.2725 29.1318 85.6836 29.1318H81.0562ZM95.6899 20.6548C95.6636 20.9185 95.6504 21.3403 95.6504 21.9204C95.6504 23.1157 95.8174 24.1089 96.1514 24.8999C96.4854 25.6821 96.916 26.2578 97.4434 26.627C97.9795 26.9873 98.5508 27.1675 99.1572 27.1675C100.643 27.1675 101.833 26.4468 102.73 25.0054L103.205 25.1636C102.976 25.9019 102.62 26.5918 102.137 27.2334C101.662 27.8662 101.056 28.3848 100.317 28.7891C99.5879 29.1846 98.7529 29.3823 97.8125 29.3823C96.5732 29.3823 95.4834 29.1187 94.543 28.5913C93.6113 28.064 92.8818 27.2642 92.3545 26.1919C91.8359 25.1108 91.5767 23.7705 91.5767 22.1709C91.5767 20.5361 91.8579 19.1606 92.4204 18.0444C92.9829 16.9194 93.7607 16.0757 94.7539 15.5132C95.7471 14.9507 96.894 14.6694 98.1948 14.6694C101.579 14.6694 103.271 16.6646 103.271 20.6548H95.6899ZM99.8691 20.1406C99.8955 18.7344 99.7505 17.5654 99.4341 16.6338C99.1265 15.7021 98.6562 15.2363 98.0234 15.2363C97.3818 15.2363 96.8457 15.6362 96.415 16.436C95.9932 17.2271 95.7339 18.4619 95.6372 20.1406H99.8691ZM113.514 15.0649V15.6055H110.324V26.4951C110.324 27.0312 110.42 27.4136 110.614 27.6421C110.807 27.8618 111.106 27.9717 111.51 27.9717C112.275 27.9717 112.886 27.4312 113.343 26.3501L113.804 26.6006C113.127 28.4551 111.897 29.3823 110.113 29.3823C108.926 29.3823 108.025 29.0747 107.41 28.4595C107.032 28.0903 106.773 27.6245 106.632 27.062C106.5 26.4907 106.435 25.7041 106.435 24.7021V15.6055H104.167V15.0649H106.435V11.479C107.92 11.479 109.216 11.189 110.324 10.6089V15.0649H113.514Z" fill="#263238"/>
<rect y="4" width="28" height="28" rx="5" fill="#FFB6D3"/>
<circle cx="14" cy="18" r="5" fill="#FF5196"/>
<path d="M14 11.6V10M14 26V24.4M20.4 18H22M6 18H7.6M14 12.24C12.8608 12.24 11.7471 12.5778 10.7999 13.2107C9.85269 13.8437 9.11441 14.7432 8.67845 15.7957C8.24249 16.8482 8.12843 18.0064 8.35068 19.1237C8.57293 20.2411 9.12151 21.2674 9.92706 22.0729C10.7326 22.8785 11.7589 23.4271 12.8763 23.6493C13.9936 23.8716 15.1518 23.7575 16.2043 23.3215C17.2568 22.8856 18.1563 22.1473 18.7893 21.2001C19.4222 20.2529 19.76 19.1392 19.76 18C19.76 16.4724 19.1531 15.0073 18.0729 13.9271C16.9927 12.8469 15.5276 12.24 14 12.24Z" stroke="white" stroke-width="2" stroke-linecap="square" stroke-linejoin="round"/>
</svg>
