<svg width="126" height="48" viewBox="0 0 126 48" fill="none" xmlns="http://www.w3.org/2000/svg">
<path d="M8.558 12.656C8.46467 12.432 8.33867 12.1473 8.18 11.802C8.03067 11.4567 7.86733 11.0833 7.69 10.682C7.51267 10.2807 7.32133 9.87 7.116 9.45C6.92 9.02067 6.73333 8.61933 6.556 8.246C6.37867 7.86333 6.21067 7.52267 6.052 7.224C5.90267 6.92533 5.78133 6.69667 5.688 6.538C5.58533 7.63933 5.50133 8.834 5.436 10.122C5.37067 11.4007 5.31467 12.6933 5.268 14H3.938C3.97533 13.16 4.01733 12.3153 4.064 11.466C4.11067 10.6073 4.162 9.76733 4.218 8.946C4.28333 8.11533 4.34867 7.308 4.414 6.524C4.48867 5.74 4.568 4.998 4.652 4.298H5.842C6.094 4.70867 6.36467 5.194 6.654 5.754C6.94333 6.314 7.23267 6.902 7.522 7.518C7.81133 8.12467 8.09133 8.736 8.362 9.352C8.63267 9.95867 8.88 10.514 9.104 11.018C9.328 10.514 9.57533 9.95867 9.846 9.352C10.1167 8.736 10.3967 8.12467 10.686 7.518C10.9753 6.902 11.2647 6.314 11.554 5.754C11.8433 5.194 12.114 4.70867 12.366 4.298H13.556C13.8733 7.42467 14.1113 10.6587 14.27 14H12.94C12.8933 12.6933 12.8373 11.4007 12.772 10.122C12.7067 8.834 12.6227 7.63933 12.52 6.538C12.4267 6.69667 12.3007 6.92533 12.142 7.224C11.9927 7.52267 11.8293 7.86333 11.652 8.246C11.4747 8.61933 11.2833 9.02067 11.078 9.45C10.882 9.87 10.6953 10.2807 10.518 10.682C10.3407 11.0833 10.1727 11.4567 10.014 11.802C9.86467 12.1473 9.74333 12.432 9.65 12.656H8.558ZM22.7413 10.36C22.7413 10.9387 22.6573 11.4613 22.4893 11.928C22.3213 12.3947 22.0833 12.796 21.7753 13.132C21.4766 13.468 21.1173 13.7293 20.6973 13.916C20.2773 14.0933 19.82 14.182 19.3253 14.182C18.8306 14.182 18.3733 14.0933 17.9533 13.916C17.5333 13.7293 17.1693 13.468 16.8613 13.132C16.5626 12.796 16.3293 12.3947 16.1613 11.928C15.9933 11.4613 15.9093 10.9387 15.9093 10.36C15.9093 9.79067 15.9933 9.27267 16.1613 8.806C16.3293 8.33 16.5626 7.924 16.8613 7.588C17.1693 7.252 17.5333 6.99533 17.9533 6.818C18.3733 6.63133 18.8306 6.538 19.3253 6.538C19.82 6.538 20.2773 6.63133 20.6973 6.818C21.1173 6.99533 21.4766 7.252 21.7753 7.588C22.0833 7.924 22.3213 8.33 22.4893 8.806C22.6573 9.27267 22.7413 9.79067 22.7413 10.36ZM21.3833 10.36C21.3833 9.53867 21.1966 8.89 20.8233 8.414C20.4593 7.92867 19.96 7.686 19.3253 7.686C18.6906 7.686 18.1866 7.92867 17.8133 8.414C17.4493 8.89 17.2673 9.53867 17.2673 10.36C17.2673 11.1813 17.4493 11.8347 17.8133 12.32C18.1866 12.796 18.6906 13.034 19.3253 13.034C19.96 13.034 20.4593 12.796 20.8233 12.32C21.1966 11.8347 21.3833 11.1813 21.3833 10.36ZM29.2771 8.26C29.1185 8.12933 28.8898 8.00333 28.5911 7.882C28.2925 7.76067 27.9658 7.7 27.6111 7.7C27.2378 7.7 26.9158 7.77 26.6451 7.91C26.3838 8.04067 26.1691 8.22733 26.0011 8.47C25.8331 8.70333 25.7118 8.98333 25.6371 9.31C25.5625 9.63667 25.5251 9.98667 25.5251 10.36C25.5251 11.2093 25.7351 11.8673 26.1551 12.334C26.5751 12.7913 27.1351 13.02 27.8351 13.02C28.1898 13.02 28.4838 13.006 28.7171 12.978C28.9598 12.9407 29.1465 12.9033 29.2771 12.866V8.26ZM29.2771 3.36L30.5791 3.136V13.79C30.2805 13.874 29.8978 13.958 29.4311 14.042C28.9645 14.126 28.4278 14.168 27.8211 14.168C27.2611 14.168 26.7571 14.0793 26.3091 13.902C25.8611 13.7247 25.4785 13.4727 25.1611 13.146C24.8438 12.8193 24.5965 12.4227 24.4191 11.956C24.2511 11.48 24.1671 10.948 24.1671 10.36C24.1671 9.8 24.2371 9.28667 24.3771 8.82C24.5265 8.35333 24.7411 7.952 25.0211 7.616C25.3011 7.28 25.6418 7.01867 26.0431 6.832C26.4538 6.64533 26.9205 6.552 27.4431 6.552C27.8631 6.552 28.2318 6.608 28.5491 6.72C28.8758 6.832 29.1185 6.93933 29.2771 7.042V3.36ZM32.4113 10.374C32.4113 9.73 32.5046 9.17 32.6913 8.694C32.8779 8.20867 33.1253 7.80733 33.4333 7.49C33.7413 7.17267 34.0959 6.93467 34.4973 6.776C34.8986 6.61733 35.3093 6.538 35.7293 6.538C36.7093 6.538 37.4606 6.846 37.9833 7.462C38.5059 8.06867 38.7673 8.99733 38.7673 10.248C38.7673 10.304 38.7673 10.3787 38.7673 10.472C38.7673 10.556 38.7626 10.6353 38.7533 10.71H33.7693C33.8253 11.466 34.0446 12.04 34.4273 12.432C34.8099 12.824 35.4073 13.02 36.2193 13.02C36.6766 13.02 37.0593 12.9827 37.3673 12.908C37.6846 12.824 37.9226 12.7447 38.0813 12.67L38.2633 13.762C38.1046 13.846 37.8246 13.9347 37.4233 14.028C37.0313 14.1213 36.5833 14.168 36.0793 14.168C35.4446 14.168 34.8939 14.0747 34.4273 13.888C33.9699 13.692 33.5919 13.426 33.2933 13.09C32.9946 12.754 32.7706 12.3573 32.6213 11.9C32.4813 11.4333 32.4113 10.9247 32.4113 10.374ZM37.4093 9.66C37.4186 9.072 37.2693 8.59133 36.9613 8.218C36.6626 7.83533 36.2473 7.644 35.7153 7.644C35.4166 7.644 35.1506 7.70467 34.9173 7.826C34.6933 7.938 34.5019 8.08733 34.3433 8.274C34.1846 8.46067 34.0586 8.67533 33.9653 8.918C33.8813 9.16067 33.8253 9.408 33.7973 9.66H37.4093ZM43.3256 6.566C43.4376 6.566 43.5636 6.57533 43.7036 6.594C43.8529 6.60333 43.9976 6.622 44.1376 6.65C44.2776 6.66867 44.4036 6.692 44.5156 6.72C44.6369 6.73867 44.7256 6.75733 44.7816 6.776L44.5576 7.91C44.4549 7.87267 44.2822 7.83067 44.0396 7.784C43.8062 7.728 43.5029 7.7 43.1296 7.7C42.8869 7.7 42.6442 7.728 42.4016 7.784C42.1682 7.83067 42.0142 7.86333 41.9396 7.882V14H40.6376V7.028C40.9456 6.916 41.3282 6.81333 41.7856 6.72C42.2429 6.61733 42.7562 6.566 43.3256 6.566ZM46.038 6.93C46.3366 6.85533 46.7333 6.776 47.228 6.692C47.7226 6.608 48.292 6.566 48.936 6.566C49.5146 6.566 49.9953 6.65 50.378 6.818C50.7606 6.97667 51.064 7.20533 51.288 7.504C51.5213 7.79333 51.6846 8.14333 51.778 8.554C51.8713 8.96467 51.918 9.41733 51.918 9.912V14H50.616V10.192C50.616 9.744 50.5833 9.36133 50.518 9.044C50.462 8.72667 50.364 8.47 50.224 8.274C50.084 8.078 49.8973 7.938 49.664 7.854C49.4306 7.76067 49.1413 7.714 48.796 7.714C48.656 7.714 48.5113 7.71867 48.362 7.728C48.2126 7.73733 48.068 7.75133 47.928 7.77C47.7973 7.77933 47.676 7.79333 47.564 7.812C47.4613 7.83067 47.3866 7.84467 47.34 7.854V14H46.038V6.93Z" fill="#263238"/>
<path d="M11.88 40.42C8.5 40.42 5.92 39.48 4.14 37.6C2.38 35.72 1.5 33.05 1.5 29.59C1.5 27.87 1.77 26.34 2.31 25C2.85 23.64 3.59 22.5 4.53 21.58C5.47 20.64 6.59 19.93 7.89 19.45C9.19 18.97 10.6 18.73 12.12 18.73C13 18.73 13.8 18.8 14.52 18.94C15.24 19.06 15.87 19.21 16.41 19.39C16.95 19.55 17.4 19.72 17.76 19.9C18.12 20.08 18.38 20.22 18.54 20.32L17.19 24.1C16.55 23.76 15.8 23.47 14.94 23.23C14.1 22.99 13.14 22.87 12.06 22.87C11.34 22.87 10.63 22.99 9.93 23.23C9.25 23.47 8.64 23.86 8.1 24.4C7.58 24.92 7.16 25.6 6.84 26.44C6.52 27.28 6.36 28.3 6.36 29.5C6.36 30.46 6.46 31.36 6.66 32.2C6.88 33.02 7.22 33.73 7.68 34.33C8.16 34.93 8.78 35.41 9.54 35.77C10.3 36.11 11.22 36.28 12.3 36.28C12.98 36.28 13.59 36.24 14.13 36.16C14.67 36.08 15.15 35.99 15.57 35.89C15.99 35.77 16.36 35.64 16.68 35.5C17 35.36 17.29 35.23 17.55 35.11L18.84 38.86C18.18 39.26 17.25 39.62 16.05 39.94C14.85 40.26 13.46 40.42 11.88 40.42ZM31.0631 28.18C30.6631 28.08 30.1931 27.98 29.6531 27.88C29.1131 27.76 28.5331 27.7 27.9131 27.7C27.6331 27.7 27.2931 27.73 26.8931 27.79C26.5131 27.83 26.2231 27.88 26.0231 27.94V40H21.5531V25.06C22.3531 24.78 23.2931 24.52 24.3731 24.28C25.4731 24.02 26.6931 23.89 28.0331 23.89C28.2731 23.89 28.5631 23.91 28.9031 23.95C29.2431 23.97 29.5831 24.01 29.9231 24.07C30.2631 24.11 30.6031 24.17 30.9431 24.25C31.2831 24.31 31.5731 24.39 31.8131 24.49L31.0631 28.18ZM49.1569 24.22C48.2569 27.26 47.3169 30.11 46.3369 32.77C45.3569 35.43 44.2869 38.01 43.1269 40.51C42.7069 41.41 42.2869 42.17 41.8669 42.79C41.4469 43.43 40.9869 43.95 40.4869 44.35C39.9869 44.77 39.4169 45.07 38.7769 45.25C38.1569 45.45 37.4269 45.55 36.5869 45.55C35.8869 45.55 35.2369 45.48 34.6369 45.34C34.0569 45.22 33.5769 45.08 33.1969 44.92L33.9769 41.35C34.4369 41.51 34.8469 41.62 35.2069 41.68C35.5669 41.74 35.9469 41.77 36.3469 41.77C37.1469 41.77 37.7569 41.55 38.1769 41.11C38.6169 40.69 38.9869 40.1 39.2869 39.34C38.2669 37.34 37.2469 35.1 36.2269 32.62C35.2069 30.12 34.2469 27.32 33.3469 24.22H38.0869C38.2869 25 38.5169 25.85 38.7769 26.77C39.0569 27.67 39.3469 28.59 39.6469 29.53C39.9469 30.45 40.2469 31.35 40.5469 32.23C40.8669 33.11 41.1669 33.91 41.4469 34.63C41.7069 33.91 41.9769 33.11 42.2569 32.23C42.5369 31.35 42.8069 30.45 43.0669 29.53C43.3469 28.59 43.6069 27.67 43.8469 26.77C44.1069 25.85 44.3369 25 44.5369 24.22H49.1569ZM61.6631 32.23C61.6631 30.85 61.3531 29.75 60.7331 28.93C60.1131 28.09 59.1931 27.67 57.9731 27.67C57.5731 27.67 57.2031 27.69 56.8631 27.73C56.5231 27.75 56.2431 27.78 56.0231 27.82V35.89C56.3031 36.07 56.6631 36.22 57.1031 36.34C57.5631 36.46 58.0231 36.52 58.4831 36.52C60.6031 36.52 61.6631 35.09 61.6631 32.23ZM66.2231 32.11C66.2231 33.33 66.0731 34.44 65.7731 35.44C65.4731 36.44 65.0331 37.3 64.4531 38.02C63.8731 38.74 63.1531 39.3 62.2931 39.7C61.4331 40.1 60.4431 40.3 59.3231 40.3C58.7031 40.3 58.1231 40.24 57.5831 40.12C57.0431 40 56.5231 39.83 56.0231 39.61V45.55H51.5531V24.76C51.9531 24.64 52.4131 24.53 52.9331 24.43C53.4531 24.31 53.9931 24.21 54.5531 24.13C55.1331 24.05 55.7131 23.99 56.2931 23.95C56.8931 23.89 57.4631 23.86 58.0031 23.86C59.3031 23.86 60.4631 24.06 61.4831 24.46C62.5031 24.84 63.3631 25.39 64.0631 26.11C64.7631 26.81 65.2931 27.67 65.6531 28.69C66.0331 29.71 66.2231 30.85 66.2231 32.11ZM69.5086 20.29L73.9786 19.57V24.22H79.3486V27.94H73.9786V33.49C73.9786 34.43 74.1386 35.18 74.4586 35.74C74.7986 36.3 75.4686 36.58 76.4686 36.58C76.9486 36.58 77.4386 36.54 77.9386 36.46C78.4586 36.36 78.9286 36.23 79.3486 36.07L79.9786 39.55C79.4386 39.77 78.8386 39.96 78.1786 40.12C77.5186 40.28 76.7086 40.36 75.7486 40.36C74.5286 40.36 73.5186 40.2 72.7186 39.88C71.9186 39.54 71.2786 39.08 70.7986 38.5C70.3186 37.9 69.9786 37.18 69.7786 36.34C69.5986 35.5 69.5086 34.57 69.5086 33.55V20.29ZM97.1627 32.08C97.1627 33.32 96.9827 34.46 96.6227 35.5C96.2627 36.52 95.7427 37.4 95.0627 38.14C94.3827 38.86 93.5627 39.42 92.6027 39.82C91.6627 40.22 90.6027 40.42 89.4227 40.42C88.2627 40.42 87.2027 40.22 86.2427 39.82C85.3027 39.42 84.4927 38.86 83.8127 38.14C83.1327 37.4 82.6027 36.52 82.2227 35.5C81.8427 34.46 81.6527 33.32 81.6527 32.08C81.6527 30.84 81.8427 29.71 82.2227 28.69C82.6227 27.67 83.1627 26.8 83.8427 26.08C84.5427 25.36 85.3627 24.8 86.3027 24.4C87.2627 24 88.3027 23.8 89.4227 23.8C90.5627 23.8 91.6027 24 92.5427 24.4C93.5027 24.8 94.3227 25.36 95.0027 26.08C95.6827 26.8 96.2127 27.67 96.5927 28.69C96.9727 29.71 97.1627 30.84 97.1627 32.08ZM92.6027 32.08C92.6027 30.7 92.3227 29.62 91.7627 28.84C91.2227 28.04 90.4427 27.64 89.4227 27.64C88.4027 27.64 87.6127 28.04 87.0527 28.84C86.4927 29.62 86.2127 30.7 86.2127 32.08C86.2127 33.46 86.4927 34.56 87.0527 35.38C87.6127 36.18 88.4027 36.58 89.4227 36.58C90.4427 36.58 91.2227 36.18 91.7627 35.38C92.3227 34.56 92.6027 33.46 92.6027 32.08Z" fill="#263238"/>
<path d="M114 43V30.0565L104 21V43H114Z" fill="#27CAEA"/>
<path d="M125.951 42.6862V29.9273L116.295 21V42.6862H125.951Z" fill="#FFB04E"/>
</svg>
