<svg width="92" height="37" viewBox="0 0 92 37" fill="none" xmlns="http://www.w3.org/2000/svg">
<path d="M0 22.7435V0H13.5302V22.7324H0V22.7435ZM11.8909 17.4523L12.239 14.94L10.9813 14.8177L10.5996 16.7519C9.8136 17.141 8.84797 17.33 7.69144 17.33C6.11947 17.33 4.87311 16.8409 3.96361 15.8515C3.04289 14.8622 2.59375 13.5616 2.59375 11.9387C2.59375 10.3602 3.04289 9.05962 3.92993 8.03693C4.81697 7.01425 5.98475 6.50291 7.43321 6.50291C8.17428 6.50291 8.80305 6.59184 9.30833 6.75858C9.81361 6.92532 10.274 7.14765 10.7119 7.43666L11.0824 9.34863L12.3625 9.22636L11.9919 6.71412C11.453 6.25836 10.8129 5.89153 10.0719 5.60251C9.33078 5.32461 8.41007 5.1801 7.32092 5.1801C6.02966 5.1801 4.91805 5.49135 3.98609 6.12497C3.05414 6.75858 2.32429 7.59229 1.80779 8.62609C1.29128 9.671 1.03303 10.7937 1.03303 11.9943C1.03303 13.8951 1.62813 15.4847 2.81833 16.7519C4.00854 18.0192 5.55805 18.6528 7.4781 18.6528C9.36447 18.6528 10.8354 18.2526 11.8909 17.4523Z" fill="#263238"/>
<path d="M18.123 22.7435V0H23.9393V22.7324H18.123V22.7435ZM18.7406 18.4527H23.333V17.3078H21.7498V4.61318H18.7181V5.75813H20.3238V17.3078H18.7406V18.4527Z" fill="#263238"/>
<path d="M28.5312 22.7435V0H38.7491V22.7324H28.5312V22.7435ZM30.3839 10.1823L30.0583 12.2499L31.2373 12.3944L31.5854 10.8493C32.0906 10.6047 32.6633 10.4825 33.337 10.4825C34.1454 10.4825 34.6957 10.6826 34.9764 11.0827C35.2571 11.4829 35.3918 12.0054 35.3918 12.6501V13.4505C35.1448 13.4282 34.8865 13.406 34.6058 13.3949C34.3251 13.3838 34.0556 13.3727 33.7862 13.3727C32.7756 13.3727 31.8099 13.5505 30.9117 13.9062C30.0134 14.2619 29.5643 15.0067 29.5643 16.1294C29.5643 17.0854 29.8674 17.7413 30.485 18.097C31.1026 18.4638 31.7089 18.6417 32.304 18.6417C33.0338 18.6417 33.6626 18.4527 34.1791 18.0748C34.6956 17.6968 35.0999 17.2744 35.3918 16.7853V16.8298C35.4143 18.0414 35.9645 18.6417 37.0424 18.6417C37.4578 18.6417 37.8508 18.5416 38.2213 18.3416L38.1989 17.4189C38.0192 17.4967 37.8171 17.5412 37.5926 17.5412C37.076 17.5412 36.8178 17.2188 36.8178 16.5741V12.3166C36.8178 10.3157 35.7399 9.31528 33.584 9.31528C32.9889 9.31528 32.4275 9.38198 31.8998 9.51537C31.3608 9.65988 30.8555 9.8822 30.3839 10.1823ZM35.3806 15.0956C35.3244 15.8293 35.0213 16.4185 34.4711 16.8409C33.9209 17.2744 33.337 17.4856 32.7082 17.4856C32.3152 17.4856 31.9335 17.3744 31.5742 17.1632C31.2036 16.952 31.024 16.5519 31.024 15.9738C31.024 15.2735 31.3047 14.8289 31.8436 14.6177C32.3938 14.4065 33.0001 14.3064 33.6851 14.3064C33.9882 14.3064 34.2802 14.3175 34.5609 14.3509C34.8416 14.3731 35.1223 14.3953 35.3693 14.4065V15.0956H35.3806Z" fill="#263238"/>
<path d="M43.3535 22.7435V0H52.6394V22.7324H43.3535V22.7435ZM51.6625 15.8627C51.6625 15.1512 51.4716 14.6288 51.0898 14.2842C50.7081 13.9396 50.2477 13.7061 49.6863 13.5727C49.1249 13.4394 48.5747 13.3282 48.0245 13.2393C47.4743 13.1503 47.0027 13.0058 46.621 12.8169C46.2392 12.6279 46.0483 12.2944 46.0483 11.8164C46.0483 11.3606 46.228 11.0272 46.5985 10.8048C46.969 10.5825 47.4294 10.4825 48.002 10.4825C48.6645 10.4825 49.2821 10.627 49.8548 10.9271L50.0793 12.3722L51.2583 12.2277L51.0337 10.1379C50.652 9.90444 50.1916 9.71546 49.6414 9.55984C49.0912 9.40421 48.5073 9.31528 47.8785 9.31528C47.0476 9.31528 46.2841 9.51537 45.5767 9.90444C44.8694 10.2935 44.5213 10.9605 44.5213 11.9164C44.5213 12.6168 44.7121 13.1281 45.0939 13.4505C45.4757 13.784 45.9473 14.0063 46.5199 14.1397C47.0926 14.2731 47.654 14.3842 48.2154 14.4843C48.7768 14.5732 49.2484 14.7288 49.6302 14.9289C50.0119 15.129 50.2028 15.4736 50.2028 15.9738C50.2028 16.4852 49.9558 16.8631 49.4617 17.1077C48.9677 17.3522 48.4063 17.4745 47.7663 17.4745C47.0476 17.4745 46.3739 17.33 45.7564 17.0299L45.8125 15.8404L44.6785 15.7182L44.3977 17.7524C44.7907 18.0081 45.3072 18.2193 45.936 18.386C46.5648 18.5528 47.1936 18.6417 47.8336 18.6417C48.9228 18.6417 49.8323 18.3971 50.5621 17.8969C51.292 17.4189 51.6625 16.7297 51.6625 15.8627Z" fill="#263238"/>
<path d="M57.2305 22.7435V0H66.5163V22.7324H57.2305V22.7435ZM65.5394 15.8627C65.5394 15.1512 65.3485 14.6288 64.9668 14.2842C64.585 13.9396 64.1246 13.7061 63.5632 13.5727C63.0018 13.4394 62.4516 13.3282 61.9014 13.2393C61.3513 13.1503 60.8797 13.0058 60.4979 12.8169C60.1161 12.6279 59.9252 12.2944 59.9252 11.8164C59.9252 11.3606 60.1049 11.0272 60.4754 10.8048C60.846 10.5825 61.3063 10.4825 61.879 10.4825C62.5414 10.4825 63.159 10.627 63.7317 10.9271L63.9563 12.3722L65.1352 12.2277L64.9106 10.1379C64.5289 9.90444 64.0685 9.71546 63.5183 9.55984C62.9681 9.40421 62.3843 9.31528 61.7555 9.31528C60.9246 9.31528 60.1611 9.51537 59.4537 9.90444C58.7463 10.2935 58.3982 10.9605 58.3982 11.9164C58.3982 12.6168 58.5891 13.1281 58.9709 13.4505C59.3526 13.784 59.8242 14.0063 60.3969 14.1397C60.9695 14.2731 61.5309 14.3842 62.0923 14.4843C62.6537 14.5732 63.1253 14.7288 63.5071 14.9289C63.8889 15.129 64.0797 15.4736 64.0797 15.9738C64.0797 16.4852 63.8328 16.8631 63.3387 17.1077C62.8447 17.3522 62.2832 17.4745 61.6432 17.4745C60.9246 17.4745 60.2508 17.33 59.6333 17.0299L59.6895 15.8404L58.5554 15.7182L58.2747 17.7524C58.6677 18.0081 59.1842 18.2193 59.813 18.386C60.4418 18.5528 61.0706 18.6417 61.7106 18.6417C62.7997 18.6417 63.7092 18.3971 64.4391 17.8969C65.1689 17.4189 65.5394 16.7297 65.5394 15.8627Z" fill="#263238"/>
<path d="M71.1094 22.7435V0H77.2289V22.7324H71.1094V22.7435ZM72.0076 18.4527H76.6001V17.3078H75.0168V9.50426H71.974V10.6492H73.602V17.3078H72.0189V18.4527H72.0076ZM73.4449 5.35796V7.19211H74.9944V5.35796H73.4449Z" fill="#263238"/>
<path d="M81.8203 22.7435V0H91.6003V22.7324H81.8203V22.7435ZM90.7244 15.4403L89.5005 15.1735C89.2311 16.6853 88.4114 17.4411 87.064 17.4411C86.1657 17.4411 85.4808 17.141 85.0092 16.5407C84.5376 15.9405 84.3018 15.0957 84.3018 14.0285C84.3018 13.0614 84.5151 12.2388 84.9306 11.5496C85.346 10.8604 86.0422 10.5269 87.0078 10.5269C87.7489 10.5269 88.4002 10.6937 88.9391 11.0272L89.2872 12.5389L90.4662 12.3944L90.1181 10.2379C89.6577 9.89332 89.1749 9.64877 88.6697 9.51537C88.1644 9.38198 87.6142 9.31528 87.0191 9.31528C85.6155 9.31528 84.5488 9.80439 83.8526 10.7826C83.1453 11.7608 82.7972 12.8724 82.7972 14.1063C82.7972 15.5403 83.1677 16.663 83.92 17.4523C84.6611 18.2526 85.6604 18.6528 86.9068 18.6528C88.1531 18.6528 89.0739 18.3082 89.6578 17.6301C90.2416 16.9409 90.6009 16.2184 90.7244 15.4403Z" fill="#263238"/>
<path d="M5.85067 35.1602C5.59242 35.627 5.21064 35.9939 4.71659 36.2496C4.21131 36.5052 3.6162 36.6386 2.92004 36.6386H0.910156V30.3691H2.92004C3.6162 30.3691 4.22254 30.4914 4.71659 30.7471C5.21064 31.0028 5.59242 31.3585 5.85067 31.8365C6.10892 32.3145 6.23243 32.8591 6.23243 33.5039C6.23243 34.1375 6.10892 34.6933 5.85067 35.1602ZM4.73904 35.2825C5.17694 34.86 5.3903 34.2709 5.3903 33.5039C5.3903 32.7369 5.17694 32.1477 4.73904 31.7253C4.30113 31.3029 3.67234 31.0917 2.84144 31.0917H1.7074V35.9161H2.84144C3.67234 35.9161 4.30113 35.7049 4.73904 35.2825Z" fill="#FF5196"/>
<path d="M10.3978 31.025V33.1704H12.8007V33.7929H10.3978V35.9828H13.0702V36.6386H9.57812V30.3691H13.0702V31.025H10.3978Z" fill="#FF5196"/>
<path d="M20.1672 35.8383C20.0213 36.094 19.8079 36.3052 19.516 36.4608C19.224 36.6164 18.8647 36.7054 18.4268 36.7054C18.0114 36.7054 17.6296 36.6275 17.304 36.483C16.9783 36.3274 16.7201 36.1273 16.518 35.8605C16.3271 35.5937 16.2148 35.2936 16.1811 34.9601H17.0569C17.0794 35.138 17.1355 35.3158 17.2366 35.4826C17.3377 35.6493 17.4948 35.7938 17.6857 35.905C17.8766 36.0162 18.1124 36.0717 18.3931 36.0717C18.7524 36.0717 19.0332 35.9828 19.224 35.7827C19.4149 35.5826 19.516 35.3492 19.516 35.0491C19.516 34.7934 19.4486 34.5822 19.3139 34.4266C19.1791 34.2709 19.0107 34.1375 18.8198 34.0486C18.6289 33.9597 18.3482 33.8596 18.0114 33.7485C17.6071 33.6151 17.2928 33.4928 17.0457 33.3816C16.7987 33.2705 16.5966 33.0926 16.4282 32.8592C16.2597 32.6258 16.1699 32.3256 16.1699 31.9477C16.1699 31.6253 16.2485 31.3363 16.4057 31.0806C16.5629 30.8361 16.7875 30.636 17.0906 30.5026C17.3826 30.3692 17.7419 30.3025 18.1349 30.3025C18.7524 30.3025 19.2577 30.447 19.617 30.7471C19.9875 31.0473 20.1897 31.4252 20.257 31.8921H19.3812C19.3363 31.6475 19.2016 31.4252 18.9995 31.2362C18.7861 31.0473 18.5054 30.9472 18.1461 30.9472C17.8205 30.9472 17.551 31.0362 17.3601 31.2029C17.158 31.3696 17.0682 31.6142 17.0682 31.9143C17.0682 32.1589 17.1356 32.359 17.2591 32.5035C17.3938 32.6591 17.551 32.7703 17.7419 32.8592C17.9328 32.9481 18.2022 33.0371 18.5279 33.1482C18.9321 33.2816 19.2577 33.4039 19.516 33.5262C19.763 33.6484 19.9763 33.8263 20.1447 34.0597C20.3132 34.2932 20.403 34.6155 20.403 35.0157C20.3805 35.3047 20.3132 35.5826 20.1672 35.8383Z" fill="#FF5196"/>
<path d="M24.5462 30.3691V36.6386H23.7266V30.3691H24.5462Z" fill="#FF5196"/>
<path d="M32.8316 30.8472C33.3369 31.214 33.6737 31.7031 33.8422 32.3256H32.9776C32.8316 31.9477 32.5734 31.6364 32.2253 31.4141C31.8772 31.1807 31.4618 31.0695 30.9789 31.0695C30.5523 31.0695 30.1592 31.1695 29.8224 31.3696C29.4855 31.5697 29.2161 31.8476 29.014 32.2145C28.8231 32.5813 28.722 33.0148 28.722 33.515C28.722 34.0264 28.8231 34.471 29.014 34.8379C29.2049 35.2047 29.4855 35.4937 29.8336 35.6938C30.1817 35.8939 30.5859 35.9939 31.0463 35.9939C31.4393 35.9939 31.7874 35.905 32.113 35.7494C32.4386 35.5826 32.6969 35.3381 32.9102 35.0268C33.1235 34.7156 33.2358 34.3376 33.2807 33.9152H30.788V33.315H33.9657V34.0597C33.9095 34.56 33.7523 35.0046 33.4941 35.4159C33.2358 35.8272 32.8878 36.1384 32.4499 36.3719C32.012 36.6053 31.5179 36.7276 30.9565 36.7276C30.3501 36.7276 29.8112 36.5942 29.3396 36.3274C28.868 36.0606 28.5087 35.6827 28.2504 35.1936C27.9922 34.7156 27.8574 34.1598 27.8574 33.5373C27.8574 32.9148 27.9922 32.359 28.2504 31.881C28.5087 31.403 28.8792 31.0139 29.3396 30.7471C29.7999 30.4804 30.3389 30.3358 30.9452 30.3358C31.7088 30.3136 32.3263 30.4915 32.8316 30.8472Z" fill="#FF5196"/>
<path d="M42.2535 36.6386H41.4338L38.1439 31.6808V36.6386H37.3242V30.3691H38.1439L41.4338 35.3269V30.3691H42.2535V36.6386Z" fill="#FF5196"/>
<path d="M54.0657 35.8385C53.9197 36.0942 53.7063 36.3054 53.4144 36.4611C53.1225 36.6167 52.7632 36.7056 52.3253 36.7056C51.9098 36.7056 51.5281 36.6278 51.2024 36.4833C50.8768 36.3277 50.6185 36.1276 50.4164 35.8608C50.2256 35.594 50.1133 35.2939 50.0796 34.9604H50.9554C50.9778 35.1382 51.034 35.3161 51.1351 35.4828C51.2361 35.6496 51.3933 35.7941 51.5842 35.9052C51.775 36.0164 52.0108 36.072 52.2916 36.072C52.6509 36.072 52.9316 35.9831 53.1224 35.783C53.3133 35.5829 53.4144 35.3494 53.4144 35.0493C53.4144 34.7936 53.347 34.5824 53.2123 34.4268C53.0775 34.2712 52.9091 34.1378 52.7182 34.0489C52.5274 33.9599 52.2467 33.8599 51.9098 33.7487C51.5056 33.6153 51.1912 33.4931 50.9441 33.3819C50.6971 33.2707 50.495 33.0929 50.3266 32.8594C50.1582 32.626 50.0684 32.3259 50.0684 31.9479C50.0684 31.6255 50.1469 31.3365 50.3041 31.0809C50.4613 30.8363 50.6859 30.6362 50.9891 30.5028C51.281 30.3694 51.6403 30.3027 52.0333 30.3027C52.6509 30.3027 53.1562 30.4472 53.5155 30.7474C53.886 31.0475 54.0881 31.4255 54.1555 31.8923H53.2797C53.2347 31.6478 53.1 31.4255 52.8979 31.2365C52.6845 31.0475 52.4039 30.9475 52.0446 30.9475C51.7189 30.9475 51.4494 31.0364 51.2586 31.2031C51.0565 31.3699 50.9666 31.6144 50.9666 31.9146C50.9666 32.1591 51.034 32.3592 51.1575 32.5037C51.2922 32.6593 51.4494 32.7705 51.6403 32.8594C51.8312 32.9484 52.1007 33.0373 52.4263 33.1485C52.8305 33.2818 53.1561 33.4041 53.4144 33.5264C53.6614 33.6487 53.8748 33.8265 54.0432 34.06C54.2116 34.2934 54.3014 34.6158 54.3014 35.016C54.279 35.305 54.2116 35.5829 54.0657 35.8385Z" fill="#FF5196"/>
<path d="M61.509 30.3691V31.025H59.7237V36.6386H58.8928V31.025H57.1074V30.3691H61.509Z" fill="#FF5196"/>
<path d="M65.3284 30.3691V34.1264C65.3284 34.7378 65.4632 35.1935 65.7439 35.4937C66.0246 35.7827 66.3951 35.9383 66.8892 35.9383C67.372 35.9383 67.7425 35.7938 68.012 35.4937C68.2815 35.1935 68.4162 34.7489 68.4162 34.1375V30.3803H69.2359V34.1375C69.2359 34.9934 69.0226 35.6382 68.5959 36.0606C68.1692 36.4941 67.5966 36.7053 66.8779 36.7053C66.1706 36.7053 65.598 36.4941 65.1713 36.0606C64.7446 35.6271 64.5312 34.9934 64.5312 34.1375V30.3803H65.3284V30.3691Z" fill="#FF5196"/>
<path d="M77.6904 35.1602C77.4322 35.627 77.0504 35.9939 76.5564 36.2496C76.0511 36.5052 75.456 36.6386 74.7599 36.6386H72.75V30.3691H74.7599C75.456 30.3691 76.0623 30.4914 76.5564 30.7471C77.0504 31.0028 77.4322 31.3585 77.6904 31.8365C77.9487 32.3145 78.0722 32.8591 78.0722 33.5039C78.0722 34.1375 77.9487 34.6933 77.6904 35.1602ZM76.5901 35.2825C77.028 34.86 77.2413 34.2709 77.2413 33.5039C77.2413 32.7369 77.028 32.1477 76.5901 31.7253C76.1522 31.3029 75.5234 31.0917 74.6925 31.0917H73.5584V35.9161H74.6925C75.5122 35.9161 76.1522 35.7049 76.5901 35.2825Z" fill="#FF5196"/>
<path d="M82.2474 30.3691V36.6386H81.4277V30.3691H82.2474Z" fill="#FF5196"/>
<path d="M90.2887 30.7028C90.7603 30.9807 91.1308 31.3586 91.4003 31.8478C91.6698 32.3369 91.8045 32.8927 91.8045 33.5041C91.8045 34.1154 91.6698 34.6712 91.4003 35.1603C91.1308 35.6495 90.7603 36.0274 90.2887 36.3053C89.8171 36.5832 89.2893 36.7166 88.7054 36.7166C88.1216 36.7166 87.5826 36.5832 87.111 36.3053C86.6394 36.0274 86.2577 35.6495 85.9882 35.1603C85.7187 34.6712 85.584 34.1154 85.584 33.5041C85.584 32.8927 85.7187 32.3369 85.9882 31.8478C86.2577 31.3586 86.6282 30.9807 87.111 30.7028C87.5938 30.4249 88.1216 30.2915 88.7054 30.2915C89.2893 30.2915 89.8171 30.4249 90.2887 30.7028ZM87.5265 31.3475C87.1784 31.5476 86.9089 31.8255 86.7181 32.2035C86.5272 32.5703 86.4261 33.0038 86.4261 33.5041C86.4261 33.9932 86.5272 34.4267 86.7181 34.8046C86.9089 35.1826 87.1784 35.4605 87.5265 35.6606C87.8746 35.8607 88.2563 35.9607 88.6942 35.9607C89.1209 35.9607 89.5139 35.8607 89.862 35.6606C90.2101 35.4605 90.4795 35.1715 90.6704 34.8046C90.8613 34.4378 90.9624 34.0043 90.9624 33.5152C90.9624 33.0149 90.8613 32.5814 90.6704 32.2146C90.4795 31.8478 90.2101 31.5587 89.862 31.3586C89.5139 31.1586 89.1321 31.0585 88.6942 31.0585C88.2675 31.0474 87.8746 31.1474 87.5265 31.3475Z" fill="#FF5196"/>
</svg>
