<svg width="115" height="63" viewBox="0 0 115 63" fill="none" xmlns="http://www.w3.org/2000/svg">
<path d="M30.4272 14.5001L1.5 28.5001V35.5001H113.5V0.500122L65.2881 22.5001L30.4272 14.5001Z" fill="url(#paint0_linear_1_2026)"/>
<path d="M0.5 28.5001L29.9437 14.2545L65.4272 22.1142L114.5 0.500122" stroke="#4C56CC" stroke-linecap="round"/>
<path d="M20.8945 51.7296C20.8945 53.63 21.4277 55.0314 22.4941 55.9337C23.5674 56.8361 24.9072 57.2872 26.5137 57.2872C28.1133 57.2872 29.4463 56.8361 30.5127 55.9337C31.5791 55.0314 32.1123 53.63 32.1123 51.7296V42.0704H29.395V51.8834C29.395 53.0524 29.1318 53.8898 28.6055 54.3956C28.0791 54.8947 27.3853 55.1442 26.5239 55.1442C25.6558 55.1442 24.9585 54.8947 24.4321 54.3956C23.9126 53.8898 23.6528 53.0524 23.6528 51.8834V42.0704H20.8945V51.7296ZM34.8296 61.2965H37.5059V55.8722C37.793 56.2823 38.1997 56.6071 38.7261 56.8463C39.2593 57.0856 39.8745 57.2052 40.5718 57.2052C41.9048 57.2052 42.978 56.7164 43.7915 55.7389C44.605 54.7545 45.0117 53.4625 45.0117 51.8629V51.5348C45.0117 49.9283 44.6016 48.6398 43.7812 47.6691C42.9609 46.6915 41.874 46.2028 40.5205 46.2028C39.8232 46.2028 39.1978 46.3463 38.644 46.6334C38.0903 46.9137 37.6904 47.2657 37.4443 47.6896H37.3931L37.3315 46.4181H34.8296V61.2965ZM37.5059 53.5958V49.7916C37.6836 49.3815 37.9707 49.0226 38.3672 48.715C38.7705 48.4005 39.2627 48.2433 39.8438 48.2433C40.6777 48.2433 41.293 48.5338 41.6895 49.1149C42.0859 49.6891 42.2842 50.4615 42.2842 51.4323V51.9655C42.2842 52.9362 42.0859 53.7155 41.6895 54.3033C41.293 54.8844 40.6812 55.1749 39.854 55.1749C39.2866 55.1749 38.7944 55.0177 38.3774 54.7032C37.9673 54.382 37.6768 54.0128 37.5059 53.5958ZM51.5537 52.8473C51.5537 54.276 52.0732 55.3732 53.1123 56.1388C54.1582 56.9044 55.5186 57.2872 57.1934 57.2872C58.875 57.2872 60.2183 56.8976 61.2231 56.1183C62.2349 55.3322 62.7407 54.2623 62.7407 52.9088C62.7407 51.6168 62.3477 50.6188 61.5615 49.9147C60.7754 49.2037 59.6133 48.6295 58.0752 48.192C56.626 47.7887 55.6792 47.4332 55.2349 47.1256C54.7905 46.818 54.5684 46.3839 54.5684 45.8234C54.5684 45.2355 54.7734 44.7706 55.1836 44.4288C55.5938 44.087 56.2329 43.9161 57.1011 43.9161C57.9692 43.9161 58.6221 44.1246 59.0596 44.5416C59.5039 44.9518 59.7261 45.5021 59.7261 46.1925V46.4181H62.4434V46.1412C62.4434 44.8287 61.9546 43.776 60.9771 42.983C60.0063 42.1832 58.7109 41.7833 57.0908 41.7833C55.4639 41.7833 54.1753 42.173 53.2251 42.9523C52.2749 43.7247 51.7998 44.7433 51.7998 46.0079C51.8066 47.2111 52.186 48.151 52.938 48.8278C53.6968 49.5045 54.8589 50.0651 56.4243 50.5094C57.8667 50.9127 58.8203 51.2887 59.2852 51.6373C59.75 51.986 59.9824 52.4679 59.9824 53.0831C59.9824 53.712 59.7397 54.2179 59.2544 54.6007C58.7759 54.9835 58.0854 55.1749 57.1831 55.1749C56.2808 55.1749 55.5767 54.9767 55.0708 54.5802C54.5649 54.1837 54.312 53.589 54.312 52.796V52.5397H51.5537V52.8473ZM64.7505 57.0001H67.4268V49.8531C67.625 49.3746 67.9087 48.9952 68.2778 48.715C68.647 48.4347 69.0845 48.2946 69.5903 48.2946C70.1714 48.2946 70.626 48.4518 70.9541 48.7662C71.2822 49.0807 71.4463 49.6071 71.4463 50.3453V57.0001H74.1123V50.1813C74.1123 48.7662 73.791 47.7511 73.1484 47.1359C72.5127 46.5138 71.6924 46.2028 70.6875 46.2028C69.9355 46.2028 69.2861 46.3497 68.7393 46.6437C68.1924 46.9376 67.7549 47.3204 67.4268 47.7921V41.4039H64.7505V57.0001ZM76.1221 51.8629C76.1221 53.5035 76.6108 54.8195 77.5884 55.8107C78.5728 56.8019 79.8647 57.2975 81.4644 57.2975C83.064 57.2975 84.3525 56.8019 85.3301 55.8107C86.3076 54.8195 86.7964 53.5035 86.7964 51.8629V51.5348C86.7964 49.901 86.3076 48.5885 85.3301 47.5973C84.3525 46.6061 83.064 46.1105 81.4644 46.1105C79.8647 46.1105 78.5728 46.6061 77.5884 47.5973C76.6108 48.5885 76.1221 49.901 76.1221 51.5348V51.8629ZM78.8496 51.4323C78.8496 50.4274 79.0752 49.631 79.5264 49.0431C79.9775 48.4552 80.6235 48.1613 81.4644 48.1613C82.2983 48.1613 82.9409 48.4552 83.3921 49.0431C83.8433 49.631 84.0688 50.4274 84.0688 51.4323V51.9757C84.0688 52.9806 83.8467 53.777 83.4023 54.3649C82.958 54.9528 82.312 55.2467 81.4644 55.2467C80.6167 55.2467 79.9673 54.9528 79.5161 54.3649C79.0718 53.777 78.8496 52.9806 78.8496 51.9757V51.4323ZM87.5552 48.3868H94.0254V46.4181H87.5552V48.3868ZM89.2471 53.9957C89.2471 55.1373 89.5239 55.9713 90.0776 56.4977C90.6313 57.024 91.3765 57.2872 92.313 57.2872C92.6753 57.2872 93.0034 57.2565 93.2974 57.1949C93.5981 57.1334 93.8306 57.0651 93.9946 56.9899V55.0211C93.8374 55.0826 93.6733 55.1339 93.5024 55.1749C93.3384 55.2091 93.1743 55.2262 93.0103 55.2262C92.6479 55.2262 92.3711 55.1305 92.1797 54.9391C91.9951 54.7477 91.9028 54.3888 91.9028 53.8624V43.7111H89.2676V47.1051L89.2471 47.382V53.9957Z" fill="#263238"/>
<defs>
<linearGradient id="paint0_linear_1_2026" x1="57.5" y1="0.500122" x2="57.3315" y2="35.0011" gradientUnits="userSpaceOnUse">
<stop stop-color="#7782FF"/>
<stop offset="1" stop-color="#7782FF" stop-opacity="0"/>
</linearGradient>
</defs>
</svg>
